<svg xmlns="http://www.w3.org/2000/svg" xmlns:xlink="http://www.w3.org/1999/xlink" width="500" zoomAndPan="magnify" viewBox="0 0 375 374.999991" height="500" preserveAspectRatio="xMidYMid meet" version="1.0"><defs><clipPath id="875360f192"><path d="M 170 128 L 221 128 L 221 231 L 170 231 Z M 170 128 " clip-rule="nonzero"/></clipPath><clipPath id="e308af1820"><path d="M 143.210938 103.058594 L 233.546875 117.597656 L 214.835938 233.851562 L 124.5 219.3125 Z M 143.210938 103.058594 " clip-rule="nonzero"/></clipPath><clipPath id="58affbf60d"><path d="M 233.871094 117.652344 L 143.53125 103.113281 L 124.824219 219.367188 L 215.160156 233.90625 Z M 233.871094 117.652344 " clip-rule="nonzero"/></clipPath><clipPath id="6bad5e0c4c"><path d="M 140 109 L 183 109 L 183 152 L 140 152 Z M 140 109 " clip-rule="nonzero"/></clipPath><clipPath id="f36aaf2161"><path d="M 143.210938 103.058594 L 233.546875 117.597656 L 214.835938 233.851562 L 124.5 219.3125 Z M 143.210938 103.058594 " clip-rule="nonzero"/></clipPath><clipPath id="5a8046b64f"><path d="M 233.871094 117.652344 L 143.53125 103.113281 L 124.824219 219.367188 L 215.160156 233.90625 Z M 233.871094 117.652344 " clip-rule="nonzero"/></clipPath><clipPath id="fdfce5056c"><path d="M 146 119 L 175 119 L 175 145 L 146 145 Z M 146 119 " clip-rule="nonzero"/></clipPath><clipPath id="018dde3ea9"><path d="M 143.210938 103.058594 L 233.546875 117.597656 L 214.835938 233.851562 L 124.5 219.3125 Z M 143.210938 103.058594 " clip-rule="nonzero"/></clipPath><clipPath id="dbe73bd903"><path d="M 233.871094 117.652344 L 143.53125 103.113281 L 124.824219 219.367188 L 215.160156 233.90625 Z M 233.871094 117.652344 " clip-rule="nonzero"/></clipPath><clipPath id="8c6df7b3c3"><path d="M 150 114 L 186 114 L 186 149 L 150 149 Z M 150 114 " clip-rule="nonzero"/></clipPath><clipPath id="fed8017720"><path d="M 143.210938 103.058594 L 233.546875 117.597656 L 214.835938 233.851562 L 124.5 219.3125 Z M 143.210938 103.058594 " clip-rule="nonzero"/></clipPath><clipPath id="42722443ba"><path d="M 233.871094 117.652344 L 143.53125 103.113281 L 124.824219 219.367188 L 215.160156 233.90625 Z M 233.871094 117.652344 " clip-rule="nonzero"/></clipPath><clipPath id="5c0b4732b1"><path d="M 176 111 L 184 111 L 184 120 L 176 120 Z M 176 111 " clip-rule="nonzero"/></clipPath><clipPath id="ce39b280f8"><path d="M 143.210938 103.058594 L 233.546875 117.597656 L 214.835938 233.851562 L 124.5 219.3125 Z M 143.210938 103.058594 " clip-rule="nonzero"/></clipPath><clipPath id="992ba2a40d"><path d="M 233.871094 117.652344 L 143.53125 103.113281 L 124.824219 219.367188 L 215.160156 233.90625 Z M 233.871094 117.652344 " clip-rule="nonzero"/></clipPath><clipPath id="327d46c34c"><path d="M 171 130 L 197 130 L 197 154 L 171 154 Z M 171 130 " clip-rule="nonzero"/></clipPath><clipPath id="0766717b71"><path d="M 143.210938 103.058594 L 233.546875 117.597656 L 214.835938 233.851562 L 124.5 219.3125 Z M 143.210938 103.058594 " clip-rule="nonzero"/></clipPath><clipPath id="3b1418f4d6"><path d="M 233.871094 117.652344 L 143.53125 103.113281 L 124.824219 219.367188 L 215.160156 233.90625 Z M 233.871094 117.652344 " clip-rule="nonzero"/></clipPath><clipPath id="f045f279d1"><path d="M 174 133 L 218 133 L 218 224 L 174 224 Z M 174 133 " clip-rule="nonzero"/></clipPath><clipPath id="a0583f03ad"><path d="M 143.210938 103.058594 L 233.546875 117.597656 L 214.835938 233.851562 L 124.5 219.3125 Z M 143.210938 103.058594 " clip-rule="nonzero"/></clipPath><clipPath id="d26f4c7343"><path d="M 233.871094 117.652344 L 143.53125 103.113281 L 124.824219 219.367188 L 215.160156 233.90625 Z M 233.871094 117.652344 " clip-rule="nonzero"/></clipPath></defs><g clip-path="url(#875360f192)"><g clip-path="url(#e308af1820)"><g clip-path="url(#58affbf60d)"><path fill="#ffffff" d="M 200.332031 229.621094 C 209.148438 223.589844 215.597656 215.003906 217.886719 204.484375 C 220.023438 194.675781 218.164062 184.40625 214.210938 175.3125 C 211.820312 169.8125 208.632812 165.453125 204.78125 160.96875 C 200.269531 155.71875 195.566406 150.632812 190.722656 145.691406 C 189.386719 144.324219 173.816406 128.257812 171.960938 130.59375 C 171.375 131.328125 170.253906 130.402344 170.835938 129.667969 C 172.726562 127.292969 177.4375 131.535156 178.847656 132.648438 C 183.988281 136.703125 188.628906 141.4375 193.175781 146.136719 C 201.71875 154.964844 210.847656 163.929688 215.808594 175.34375 C 219.875 184.695312 221.386719 195.25 219.203125 205.265625 C 216.886719 215.90625 210.0625 224.722656 201.1875 230.800781 C 200.414062 231.328125 199.558594 230.152344 200.332031 229.621094 Z M 200.332031 229.621094 " fill-opacity="1" fill-rule="nonzero"/></g></g></g><g clip-path="url(#6bad5e0c4c)"><g clip-path="url(#f36aaf2161)"><g clip-path="url(#5a8046b64f)"><path fill="#ffffff" d="M 172.167969 129.25 C 176.6875 123.800781 180.222656 117.335938 180.820312 110.175781 C 181.203125 110.410156 181.582031 110.644531 181.964844 110.878906 C 170.726562 120.453125 155.390625 119.367188 141.59375 120.359375 C 141.667969 119.898438 141.742188 119.4375 141.816406 118.972656 C 154.539062 126.183594 162.914062 138.214844 170.566406 150.3125 C 170.148438 150.355469 169.730469 150.394531 169.316406 150.4375 C 171.871094 143.511719 174.335938 135.707031 174.148438 128.242188 C 174.125 127.308594 175.574219 127.148438 175.597656 128.082031 C 175.789062 135.832031 173.296875 143.839844 170.636719 151.042969 C 170.453125 151.542969 169.667969 151.613281 169.386719 151.167969 C 161.886719 139.308594 153.691406 127.371094 141.210938 120.296875 C 140.625 119.96875 140.660156 118.96875 141.433594 118.914062 C 154.96875 117.941406 170.085938 119.09375 181.113281 109.699219 C 181.636719 109.253906 182.304688 109.832031 182.257812 110.40625 C 181.636719 117.804688 177.960938 124.542969 173.292969 130.175781 C 172.691406 130.894531 171.566406 129.972656 172.167969 129.25 Z M 172.167969 129.25 " fill-opacity="1" fill-rule="nonzero"/></g></g></g><g clip-path="url(#fdfce5056c)"><g clip-path="url(#018dde3ea9)"><g clip-path="url(#dbe73bd903)"><path fill="#ffffff" d="M 164.765625 135.378906 C 165.457031 133.003906 162.355469 129.675781 161.042969 127.988281 C 158.972656 125.316406 156.667969 122.8125 154.273438 120.433594 C 154.625 120.101562 154.976562 119.773438 155.328125 119.445312 C 160.421875 124.894531 165.683594 130.203125 169.042969 136.957031 C 169.4375 137.746094 168.28125 138.222656 167.773438 137.644531 C 165.035156 134.511719 163.277344 130.730469 161.257812 127.125 C 161.679688 126.894531 162.105469 126.664062 162.527344 126.433594 C 164.484375 131.5 167.28125 136.1875 168.964844 141.363281 C 169.234375 142.191406 168.246094 142.644531 167.695312 142.054688 C 163.457031 137.488281 162.015625 131.359375 158.894531 126.113281 C 159.316406 125.882812 159.742188 125.652344 160.164062 125.421875 C 162 131.910156 166.453125 137.261719 169.28125 143.308594 C 169.648438 144.09375 168.511719 144.613281 168.015625 144 C 163.824219 138.804688 161.65625 132.339844 157.464844 127.144531 C 157.886719 126.914062 158.3125 126.6875 158.734375 126.457031 C 160.617188 130.359375 163.515625 133.773438 165.675781 137.527344 C 166.152344 138.351562 165.136719 139.0625 164.5 138.378906 C 160.242188 133.839844 157.90625 127.914062 153.652344 123.375 C 154.046875 123.089844 154.4375 122.804688 154.832031 122.519531 C 157.621094 125.566406 160.660156 128.425781 162.777344 132.007812 C 163.246094 132.804688 162.164062 133.628906 161.597656 132.863281 C 158.421875 128.566406 154.414062 125.03125 150.285156 121.683594 C 150.664062 121.410156 151.042969 121.132812 151.425781 120.859375 C 152.789062 124.832031 155.84375 127.632812 159.152344 130.046875 C 158.804688 130.378906 158.453125 130.707031 158.101562 131.035156 C 155.207031 127.179688 151.128906 124.371094 147.105469 121.804688 C 147.414062 121.429688 147.722656 121.054688 148.03125 120.679688 C 150.605469 122.828125 153.285156 124.84375 155.855469 126.992188 C 156.476562 127.511719 155.835938 128.609375 155.09375 128.214844 C 151.792969 126.476562 148.648438 124.585938 146.363281 121.570312 C 145.980469 121.0625 146.453125 120.320312 147.070312 120.425781 C 152.75 121.394531 158.191406 123.371094 163.480469 125.617188 C 163.222656 126.027344 162.96875 126.433594 162.714844 126.84375 C 161.59375 126.136719 160.339844 125.722656 159.21875 125.015625 C 159.527344 124.644531 159.835938 124.269531 160.144531 123.894531 C 164.222656 126.558594 167.515625 130.1875 171.265625 133.261719 C 170.886719 133.535156 170.503906 133.8125 170.125 134.085938 C 169.15625 131.144531 167.609375 128.679688 165.273438 126.625 C 165.625 126.292969 165.976562 125.964844 166.328125 125.636719 C 167.96875 128.5 170.824219 130.269531 173.3125 132.328125 C 172.914062 132.542969 172.519531 132.753906 172.125 132.96875 C 171.929688 132.054688 171.820312 131.101562 171.527344 130.210938 C 171.128906 128.996094 169.863281 128.054688 168.96875 127.21875 C 168.394531 126.679688 168.964844 125.59375 169.734375 125.996094 C 171.53125 126.9375 173.253906 127.882812 174.546875 129.484375 C 174.15625 129.769531 173.761719 130.054688 173.371094 130.335938 C 171.507812 127.933594 168.972656 126.75 166.25 125.59375 C 166.574219 125.285156 166.902344 124.976562 167.230469 124.667969 C 169.078125 129.519531 171.328125 134.257812 171.867188 139.484375 C 171.949219 140.292969 170.730469 140.621094 170.464844 139.824219 C 169.910156 138.175781 169.152344 136.621094 168.167969 135.183594 C 168.589844 134.953125 169.015625 134.726562 169.4375 134.496094 C 170.207031 137.105469 170.519531 139.757812 170.753906 142.460938 C 170.835938 143.40625 169.476562 143.535156 169.308594 142.621094 C 168.6875 139.238281 169.6875 136.148438 170.855469 133.003906 C 171.109375 132.328125 172.195312 132.527344 172.242188 133.226562 C 172.425781 136.027344 172.003906 138.765625 171.5625 141.523438 C 171.101562 141.382812 170.644531 141.246094 170.183594 141.105469 C 170.914062 139.054688 171.402344 136.90625 171.03125 134.726562 C 170.523438 131.75 167.464844 131.695312 165.109375 132.28125 C 164.679688 132.386719 164.15625 132.195312 164.121094 131.679688 C 163.894531 128.125 158.835938 125.765625 155.773438 125.195312 C 154.851562 125.023438 155.082031 123.585938 156.003906 123.757812 C 159.703125 124.445312 165.296875 127.242188 165.570312 131.523438 C 165.238281 131.324219 164.910156 131.125 164.582031 130.921875 C 167.230469 130.265625 170.234375 130.15625 171.828125 132.765625 C 173.429688 135.390625 172.457031 139.054688 171.507812 141.710938 C 171.222656 142.5 170 142.085938 170.125 141.292969 C 170.546875 138.664062 170.96875 136.054688 170.792969 133.386719 C 171.253906 133.460938 171.71875 133.535156 172.179688 133.609375 C 171.09375 136.53125 170.175781 139.316406 170.753906 142.460938 C 170.273438 142.515625 169.789062 142.566406 169.308594 142.621094 C 169.085938 140.042969 168.8125 137.511719 168.078125 135.019531 C 167.855469 134.261719 168.855469 133.613281 169.347656 134.332031 C 170.398438 135.867188 171.226562 137.535156 171.820312 139.300781 C 171.351562 139.414062 170.886719 139.527344 170.417969 139.640625 C 169.894531 134.542969 167.675781 129.925781 165.871094 125.191406 C 165.640625 124.585938 166.269531 124.019531 166.851562 124.269531 C 169.828125 125.53125 172.527344 126.875 174.546875 129.484375 C 175.125 130.230469 173.953125 131.0625 173.367188 130.335938 C 172.242188 128.941406 170.6875 128.136719 169.125 127.320312 C 169.382812 126.910156 169.636719 126.503906 169.890625 126.09375 C 170.863281 127.003906 172.035156 127.960938 172.648438 129.171875 C 173.210938 130.289062 173.308594 131.601562 173.570312 132.8125 C 173.710938 133.460938 172.839844 133.828125 172.382812 133.453125 C 169.800781 131.316406 166.851562 129.460938 165.148438 126.488281 C 164.761719 125.8125 165.535156 124.917969 166.199219 125.5 C 168.710938 127.710938 170.4375 130.386719 171.480469 133.5625 C 171.703125 134.238281 170.925781 134.867188 170.339844 134.386719 C 166.589844 131.308594 163.296875 127.683594 159.21875 125.019531 C 158.429688 124.503906 159.363281 123.402344 160.140625 123.894531 C 161.261719 124.601562 162.515625 125.015625 163.636719 125.71875 C 164.355469 126.171875 163.601562 127.253906 162.871094 126.945312 C 157.699219 124.746094 152.390625 122.8125 146.835938 121.863281 C 147.070312 121.480469 147.304688 121.101562 147.539062 120.71875 C 149.671875 123.535156 152.617188 125.273438 155.695312 126.894531 C 155.4375 127.300781 155.183594 127.710938 154.929688 128.117188 C 152.355469 125.96875 149.675781 123.953125 147.105469 121.804688 C 146.367188 121.1875 147.257812 120.191406 148.027344 120.683594 C 152.164062 123.320312 156.304688 126.222656 159.277344 130.1875 C 159.792969 130.871094 158.875 131.648438 158.226562 131.175781 C 154.722656 128.617188 151.503906 125.582031 150.066406 121.386719 C 149.832031 120.703125 150.625 120.089844 151.207031 120.5625 C 155.429688 123.984375 159.527344 127.621094 162.773438 132.011719 C 162.378906 132.296875 161.988281 132.578125 161.59375 132.863281 C 159.476562 129.28125 156.4375 126.421875 153.648438 123.375 C 153.011719 122.679688 154.199219 121.851562 154.828125 122.523438 C 159.082031 127.0625 161.417969 132.992188 165.675781 137.53125 C 165.28125 137.816406 164.886719 138.097656 164.496094 138.382812 C 162.269531 134.515625 159.316406 131.003906 157.375 126.984375 C 156.996094 126.203125 158.148438 125.679688 158.640625 126.292969 C 162.832031 131.488281 165 137.957031 169.191406 143.148438 C 168.769531 143.378906 168.347656 143.609375 167.921875 143.835938 C 165.09375 137.792969 160.640625 132.441406 158.804688 125.949219 C 158.59375 125.210938 159.621094 124.503906 160.070312 125.261719 C 163.1875 130.5 164.644531 136.652344 168.871094 141.203125 C 168.449219 141.433594 168.027344 141.664062 167.605469 141.890625 C 165.921875 136.714844 163.121094 132.027344 161.167969 126.960938 C 160.875 126.210938 162.023438 125.539062 162.433594 126.273438 C 164.453125 129.878906 166.210938 133.660156 168.949219 136.796875 C 168.527344 137.023438 168.105469 137.253906 167.683594 137.484375 C 164.386719 130.859375 159.140625 125.640625 154.144531 120.296875 C 153.582031 119.695312 154.613281 118.730469 155.195312 119.308594 C 157.929688 122.027344 160.527344 124.898438 162.859375 127.972656 C 164.257812 129.8125 166.945312 133.054688 166.199219 135.609375 C 165.945312 136.496094 164.503906 136.277344 164.765625 135.378906 Z M 164.765625 135.378906 " fill-opacity="1" fill-rule="nonzero"/></g></g></g><g clip-path="url(#8c6df7b3c3)"><g clip-path="url(#fed8017720)"><g clip-path="url(#42722443ba)"><path fill="#ffffff" d="M 164.726562 123.292969 C 168.175781 122.5625 171.585938 122.515625 175.066406 123.035156 C 174.789062 123.238281 174.511719 123.4375 174.234375 123.640625 C 174.265625 123.433594 174.300781 123.230469 174.332031 123.023438 C 174.472656 123.28125 174.609375 123.542969 174.75 123.800781 C 172.222656 122.34375 169.148438 120.953125 166.179688 121.714844 C 166.191406 121.269531 166.207031 120.824219 166.21875 120.375 C 169.914062 122.078125 173.636719 119.949219 176.648438 117.824219 C 176.933594 118.21875 177.214844 118.609375 177.5 119.003906 C 176.359375 119.65625 174.996094 119.949219 173.683594 119.867188 C 173.761719 119.390625 173.835938 118.910156 173.914062 118.429688 C 177.402344 118.894531 180.867188 117.902344 183.261719 115.25 C 183.410156 115.640625 183.558594 116.035156 183.707031 116.429688 C 180.140625 115.96875 176.898438 117.195312 173.644531 118.496094 C 173.59375 118.03125 173.546875 117.566406 173.496094 117.101562 C 176.113281 117.519531 178.289062 117.621094 180.886719 117.054688 C 180.875 117.535156 180.863281 118.015625 180.851562 118.496094 C 177.292969 117.960938 174.089844 118.222656 170.882812 119.949219 C 170.898438 119.5 170.910156 119.054688 170.925781 118.609375 C 174.261719 119.640625 176.867188 118.601562 179.40625 116.375 C 179.511719 116.808594 179.613281 117.246094 179.71875 117.679688 C 172.367188 117.265625 164.824219 119.535156 158.394531 122.988281 C 158.28125 122.523438 158.167969 122.054688 158.054688 121.589844 C 161.890625 121.566406 165.722656 121.578125 169.527344 122.144531 C 170.320312 122.265625 170.324219 123.589844 169.492188 123.585938 C 165.929688 123.566406 162.386719 123.054688 158.828125 123.132812 C 158.902344 122.671875 158.976562 122.210938 159.050781 121.75 C 163.5625 124.230469 168.660156 125.109375 173.457031 122.878906 C 173.445312 123.324219 173.429688 123.773438 173.417969 124.21875 C 166.800781 120.679688 158.964844 120.578125 151.640625 120.714844 C 151.652344 120.234375 151.664062 119.753906 151.675781 119.273438 C 155.875 120.539062 160.203125 121.316406 164.40625 122.585938 C 165.273438 122.847656 165.128906 124.175781 164.171875 124.019531 C 163.558594 123.921875 162.941406 123.824219 162.328125 123.722656 C 161.386719 123.574219 161.636719 122.222656 162.558594 122.289062 C 169.6875 122.804688 180.515625 122.597656 183.875 114.890625 C 184.183594 115.21875 184.492188 115.546875 184.800781 115.875 C 179.328125 118.109375 175.410156 124.707031 172.867188 129.703125 C 170.542969 134.273438 166.957031 142.863281 171.550781 147.199219 C 171.15625 147.414062 170.757812 147.628906 170.363281 147.84375 C 170.25 142.894531 166.160156 138.867188 164.386719 134.425781 C 164.183594 133.914062 164.640625 133.359375 165.183594 133.445312 C 166.003906 133.578125 166.824219 133.710938 167.644531 133.84375 C 168.570312 133.992188 168.339844 135.425781 167.414062 135.277344 C 166.59375 135.144531 165.773438 135.015625 164.949219 134.882812 C 165.214844 134.554688 165.480469 134.226562 165.746094 133.902344 C 167.5625 138.464844 171.691406 142.5625 171.808594 147.683594 C 171.824219 148.265625 171.132812 148.804688 170.625 148.324219 C 165.746094 143.71875 168.570312 135.554688 170.914062 130.402344 C 172.570312 126.765625 174.757812 123.324219 177.308594 120.25 C 179.199219 117.96875 181.488281 115.65625 184.273438 114.515625 C 184.878906 114.269531 185.449219 114.925781 185.199219 115.5 C 181.535156 123.898438 170.136719 124.289062 162.324219 123.726562 C 162.402344 123.246094 162.480469 122.765625 162.558594 122.289062 C 163.171875 122.386719 163.789062 122.488281 164.402344 122.585938 C 164.328125 123.066406 164.25 123.542969 164.171875 124.023438 C 159.972656 122.753906 155.644531 121.980469 151.445312 120.710938 C 150.734375 120.496094 150.578125 119.285156 151.480469 119.269531 C 159.0625 119.125 167.171875 119.230469 174.023438 122.898438 C 174.589844 123.203125 174.566406 123.964844 173.980469 124.238281 C 168.867188 126.617188 163.269531 125.726562 158.445312 123.074219 C 157.871094 122.757812 157.886719 121.707031 158.667969 121.6875 C 162.230469 121.609375 165.769531 122.121094 169.332031 122.140625 C 169.320312 122.621094 169.308594 123.101562 169.292969 123.582031 C 165.617188 123.035156 161.921875 123.015625 158.210938 123.035156 C 157.359375 123.039062 157.136719 122.027344 157.871094 121.632812 C 164.539062 118.050781 172.335938 115.816406 179.949219 116.246094 C 180.648438 116.285156 180.679688 117.1875 180.257812 117.554688 C 177.273438 120.171875 174.164062 121.125 170.316406 119.933594 C 169.632812 119.722656 169.886719 118.84375 170.359375 118.59375 C 173.78125 116.75 177.289062 116.488281 181.078125 117.058594 C 181.945312 117.191406 181.804688 118.335938 181.042969 118.5 C 178.304688 119.101562 176.019531 118.980469 173.265625 118.539062 C 172.542969 118.421875 172.449219 117.410156 173.117188 117.140625 C 176.628906 115.738281 180.101562 114.5 183.9375 114.996094 C 184.472656 115.0625 184.75 115.769531 184.382812 116.175781 C 181.640625 119.214844 177.691406 120.402344 173.679688 119.871094 C 172.738281 119.742188 172.996094 118.375 173.914062 118.433594 C 174.804688 118.488281 175.878906 118.265625 176.648438 117.824219 C 177.441406 117.367188 178.28125 118.453125 177.5 119.003906 C 174.03125 121.453125 169.8125 123.632812 165.613281 121.703125 C 165.089844 121.460938 165.015625 120.527344 165.652344 120.363281 C 169.046875 119.488281 172.425781 120.789062 175.351562 122.480469 C 175.636719 122.644531 175.824219 122.914062 175.765625 123.257812 C 175.734375 123.464844 175.703125 123.667969 175.667969 123.875 C 175.605469 124.269531 175.226562 124.535156 174.835938 124.476562 C 171.472656 123.972656 168.207031 124.035156 164.882812 124.742188 C 163.964844 124.933594 163.820312 123.484375 164.726562 123.292969 Z M 164.726562 123.292969 " fill-opacity="1" fill-rule="nonzero"/></g></g></g><g clip-path="url(#5c0b4732b1)"><g clip-path="url(#ce39b280f8)"><g clip-path="url(#992ba2a40d)"><path fill="#ffffff" d="M 177.164062 118.539062 C 179.800781 117.050781 181.316406 114.542969 181.855469 111.605469 C 182.179688 111.867188 182.507812 112.132812 182.835938 112.398438 C 180.703125 113.082031 179.453125 113.988281 178.132812 115.796875 C 177.757812 115.488281 177.382812 115.179688 177.007812 114.871094 C 177.285156 114.496094 177.671875 113.921875 178.195312 113.929688 C 178.574219 113.9375 178.976562 114.140625 179 114.574219 C 179.070312 115.9375 178.089844 117.230469 177.792969 118.527344 C 177.585938 119.4375 176.148438 119.214844 176.355469 118.296875 C 176.605469 117.199219 177.609375 115.828125 177.554688 114.734375 C 177.820312 114.949219 178.089844 115.160156 178.355469 115.375 C 178.570312 115.378906 178.195312 115.710938 178.132812 115.796875 C 177.574219 116.554688 176.457031 115.628906 177.007812 114.871094 C 178.472656 112.863281 179.941406 111.800781 182.308594 111.042969 C 182.816406 110.878906 183.394531 111.265625 183.289062 111.835938 C 182.691406 115.117188 180.972656 118.050781 178.015625 119.71875 C 177.207031 120.171875 176.347656 119 177.164062 118.539062 Z M 177.164062 118.539062 " fill-opacity="1" fill-rule="nonzero"/></g></g></g><g clip-path="url(#327d46c34c)"><g clip-path="url(#0766717b71)"><g clip-path="url(#3b1418f4d6)"><path fill="#ffffff" d="M 172.03125 130.125 C 177.476562 131.125 181.566406 135.476562 185.039062 139.480469 C 188.738281 143.742188 191.882812 149.246094 196.589844 152.492188 C 197.359375 153.023438 196.433594 154.144531 195.664062 153.617188 C 191.609375 150.820312 188.730469 146.257812 185.667969 142.492188 C 182.09375 138.097656 177.699219 132.644531 171.800781 131.5625 C 170.878906 131.394531 171.109375 129.957031 172.03125 130.125 Z M 172.03125 130.125 " fill-opacity="1" fill-rule="nonzero"/></g></g></g><g clip-path="url(#f045f279d1)"><g clip-path="url(#a0583f03ad)"><g clip-path="url(#d26f4c7343)"><path fill="#ffffff" d="M 175.417969 133.855469 C 183.671875 138.09375 190.894531 144.332031 197.328125 150.949219 C 204.039062 157.84375 210.171875 165.667969 214.144531 174.484375 C 218.089844 183.242188 217.675781 193.433594 216.179688 202.726562 C 215.613281 206.246094 214.777344 209.136719 212.851562 212.140625 C 210.917969 215.167969 208.523438 218.003906 205.890625 220.445312 C 205.03125 221.246094 200.984375 225.078125 200.136719 222.273438 C 199.867188 221.378906 201.222656 220.847656 201.492188 221.746094 C 201.523438 221.847656 201.519531 221.820312 201.992188 221.613281 C 202.503906 221.390625 202.96875 221.011719 203.410156 220.675781 C 204.828125 219.59375 206.074219 218.277344 207.273438 216.960938 C 209.699219 214.296875 212.058594 211.296875 213.488281 207.964844 C 214.214844 206.277344 214.4375 204.296875 214.742188 202.496094 C 215.207031 199.785156 215.46875 197.042969 215.625 194.296875 C 215.917969 189.199219 215.835938 183.726562 214.265625 178.824219 C 211.296875 169.546875 204.902344 161.332031 198.429688 154.222656 C 191.875 147.023438 184.242188 140.253906 175.636719 135.609375 C 175.363281 135.460938 175.085938 135.320312 174.8125 135.179688 C 173.980469 134.75 174.578125 133.425781 175.417969 133.855469 Z M 175.417969 133.855469 " fill-opacity="1" fill-rule="nonzero"/></g></g></g></svg>