<svg xmlns="http://www.w3.org/2000/svg" xmlns:xlink="http://www.w3.org/1999/xlink" width="500" zoomAndPan="magnify" viewBox="0 0 375 374.999991" height="500" preserveAspectRatio="xMidYMid meet" version="1.0"><defs><clipPath id="92672eab07"><path d="M 130 134.363281 L 243.332031 134.363281 L 243.332031 246.863281 L 130 246.863281 Z M 130 134.363281 " clip-rule="nonzero"/></clipPath><clipPath id="5bea122b8e"><path d="M 54.511719 162.65625 L 54.921875 162.65625 L 54.921875 162.9375 L 54.511719 162.9375 Z M 54.511719 162.65625 " clip-rule="nonzero"/></clipPath><clipPath id="60967dbbe8"><path d="M 54.898438 162.824219 C 54.148438 163.125 54.75 162.675781 54.75 162.675781 " clip-rule="nonzero"/></clipPath><clipPath id="9ab1401a34"><path d="M 187.839844 186.28125 L 188.195312 186.28125 L 188.195312 186.613281 L 187.839844 186.613281 Z M 187.839844 186.28125 " clip-rule="nonzero"/></clipPath><clipPath id="f593fbec9b"><path d="M 188.175781 186.523438 C 187.5 186.75 188.101562 186.300781 188.101562 186.300781 " clip-rule="nonzero"/></clipPath><clipPath id="df599d0469"><path d="M 176.828125 179.5625 L 195.277344 179.5625 L 195.277344 198.394531 L 176.828125 198.394531 Z M 176.828125 179.5625 " clip-rule="nonzero"/></clipPath><clipPath id="138fb1c5fa"><path d="M 195.226562 186.226562 C 195.226562 192.148438 194.550781 193.648438 193.648438 194.773438 C 192.75 195.898438 191.398438 196.949219 190.050781 197.550781 C 188.773438 198.148438 187.125 198.449219 185.699219 198.375 C 184.199219 198.300781 182.625 197.773438 181.425781 197.023438 C 180.148438 196.273438 178.949219 195.074219 178.199219 193.875 C 177.449219 192.601562 177 191.023438 176.851562 189.601562 C 176.773438 188.101562 177.074219 186.449219 177.675781 185.175781 C 178.273438 183.824219 179.324219 182.550781 180.449219 181.648438 C 181.574219 180.75 183.148438 180.074219 184.574219 179.773438 C 186 179.550781 187.648438 179.625 189 180.074219 C 190.425781 180.449219 192.898438 182.398438 192.898438 182.398438 " clip-rule="nonzero"/></clipPath><clipPath id="e34ab98c9c"><path d="M 177.054688 179.5625 L 195.40625 179.5625 L 195.40625 198.394531 L 177.054688 198.394531 Z M 177.054688 179.5625 " clip-rule="nonzero"/></clipPath><clipPath id="166f4d1603"><path d="M 195.375 186.226562 C 195.375 192.148438 194.699219 193.648438 193.800781 194.851562 C 192.898438 195.976562 191.625 196.949219 190.273438 197.550781 C 188.925781 198.148438 187.273438 198.449219 185.851562 198.375 C 184.425781 198.300781 182.851562 197.773438 181.574219 197.023438 C 180.300781 196.273438 179.175781 195.148438 178.425781 193.875 C 177.675781 192.675781 177.148438 191.023438 177.074219 189.601562 C 177 188.175781 177.300781 186.523438 177.898438 185.175781 C 178.5 183.824219 179.476562 182.550781 180.675781 181.648438 C 181.800781 180.75 183.300781 180.074219 184.726562 179.773438 C 186.148438 179.550781 187.800781 179.625 189.226562 180.074219 C 190.574219 180.523438 193.050781 182.398438 193.050781 182.398438 " clip-rule="nonzero"/></clipPath><clipPath id="2c0d0296e7"><path d="M 176.605469 179.488281 L 194.957031 179.488281 L 194.957031 198.320312 L 176.605469 198.320312 Z M 176.605469 179.488281 " clip-rule="nonzero"/></clipPath><clipPath id="53e410381b"><path d="M 194.925781 186.148438 C 194.925781 192.074219 194.25 193.574219 193.351562 194.699219 C 192.449219 195.898438 191.175781 196.875 189.824219 197.476562 C 188.476562 198.074219 186.824219 198.375 185.398438 198.300781 C 183.976562 198.226562 182.398438 197.699219 181.125 196.949219 C 179.851562 196.199219 178.726562 195.074219 177.976562 193.800781 C 177.226562 192.523438 176.699219 190.949219 176.625 189.523438 C 176.550781 188.101562 176.851562 186.449219 177.449219 185.101562 C 178.050781 183.75 179.023438 182.476562 180.226562 181.574219 C 181.351562 180.675781 182.851562 180 184.273438 179.699219 C 185.699219 179.476562 187.351562 179.550781 188.773438 180 C 190.125 180.449219 192.601562 182.324219 192.601562 182.324219 " clip-rule="nonzero"/></clipPath><clipPath id="0dc6531730"><path d="M 176.378906 179.035156 L 194.734375 179.035156 L 194.734375 197.871094 L 176.378906 197.871094 Z M 176.378906 179.035156 " clip-rule="nonzero"/></clipPath><clipPath id="512b48f3da"><path d="M 194.699219 185.699219 C 194.773438 191.625 194.023438 193.125 193.125 194.25 C 192.300781 195.375 190.949219 196.425781 189.601562 197.023438 C 188.324219 197.625 186.675781 197.925781 185.175781 197.851562 C 183.75 197.773438 182.175781 197.25 180.898438 196.5 C 179.699219 195.75 178.5 194.550781 177.75 193.351562 C 177 192.074219 176.476562 190.5 176.398438 189.074219 C 176.324219 187.574219 176.625 185.925781 177.226562 184.648438 C 177.824219 183.300781 178.875 182.023438 180 181.125 C 181.125 180.226562 182.625 179.550781 184.125 179.25 C 185.550781 179.023438 187.199219 179.101562 188.550781 179.550781 C 189.976562 180 192.375 181.875 192.375 181.875 " clip-rule="nonzero"/></clipPath><clipPath id="39ea155676"><path d="M 176.433594 179.113281 L 194.882812 179.113281 L 194.882812 197.945312 L 176.433594 197.945312 Z M 176.433594 179.113281 " clip-rule="nonzero"/></clipPath><clipPath id="a554fa661c"><path d="M 194.851562 185.699219 C 194.851562 191.625 194.175781 193.125 193.273438 194.324219 C 192.375 195.449219 191.023438 196.5 189.75 197.101562 C 188.398438 197.699219 186.75 198 185.324219 197.851562 C 183.898438 197.773438 182.25 197.324219 181.050781 196.574219 C 179.773438 195.824219 178.574219 194.625 177.824219 193.351562 C 177.074219 192.148438 176.625 190.5 176.550781 189.074219 C 176.398438 187.648438 176.699219 186 177.300781 184.648438 C 177.898438 183.375 178.949219 182.023438 180.074219 181.125 C 181.273438 180.226562 182.773438 179.550781 184.199219 179.324219 C 185.625 179.023438 187.273438 179.175781 188.699219 179.550781 C 190.050781 180 192.523438 181.875 192.523438 181.875 " clip-rule="nonzero"/></clipPath><clipPath id="6b5044da24"><path d="M 176.753906 179.335938 L 195.109375 179.335938 L 195.109375 198.171875 L 176.753906 198.171875 Z M 176.753906 179.335938 " clip-rule="nonzero"/></clipPath><clipPath id="1eacfd16d6"><path d="M 195.074219 186 C 195.074219 191.851562 194.398438 193.425781 193.5 194.550781 C 192.601562 195.675781 191.324219 196.726562 189.976562 197.324219 C 188.625 197.925781 186.976562 198.226562 185.550781 198.148438 C 184.125 198 182.476562 197.550781 181.273438 196.800781 C 180 196.050781 178.875 194.851562 178.125 193.574219 C 177.375 192.375 176.851562 190.800781 176.773438 189.300781 C 176.699219 187.875 177 186.226562 177.601562 184.875 C 178.199219 183.601562 179.175781 182.25 180.375 181.351562 C 181.5 180.449219 183 179.773438 184.425781 179.550781 C 185.851562 179.25 187.5 179.398438 188.925781 179.773438 C 190.273438 180.226562 192.75 182.101562 192.75 182.101562 " clip-rule="nonzero"/></clipPath><clipPath id="80f7506b68"><path d="M 172.023438 175.246094 L 204.273438 175.246094 L 204.273438 201.703125 L 172.023438 201.703125 Z M 172.023438 175.246094 " clip-rule="nonzero"/></clipPath><clipPath id="00e792547f"><path d="M 189.375 183.226562 C 183.074219 184.726562 180.601562 187.273438 179.175781 187.199219 C 178.351562 187.199219 177.523438 186.601562 177.148438 186 C 176.851562 185.324219 176.699219 184.125 177.375 183.226562 C 179.101562 180.675781 191.699219 175.125 194.851562 175.351562 C 196.050781 175.5 196.875 176.324219 197.25 177 C 197.476562 177.523438 197.398438 178.273438 197.25 178.800781 C 197.023438 179.324219 196.800781 179.699219 196.050781 180.148438 C 193.574219 181.648438 179.925781 184.949219 176.699219 184.648438 C 175.574219 184.574219 174.976562 184.199219 174.523438 183.75 C 174.148438 183.300781 173.925781 182.550781 173.925781 182.023438 C 174 181.425781 174.148438 180.976562 174.675781 180.375 C 175.949219 178.949219 181.425781 175.425781 183.675781 175.351562 C 184.875 175.351562 186.148438 175.949219 186.601562 176.699219 C 186.976562 177.449219 186.824219 178.648438 186.226562 179.625 C 185.101562 181.5 179.699219 183.449219 177.976562 185.324219 C 176.851562 186.601562 176.851562 188.550781 175.875 189.074219 C 175.199219 189.523438 174.148438 189.449219 173.476562 189.074219 C 172.875 188.773438 172.273438 187.726562 172.125 187.125 C 171.976562 186.675781 171.976562 186.300781 172.273438 185.851562 C 173.101562 184.574219 178.425781 181.199219 180.601562 180.75 C 181.726562 180.449219 182.925781 180.523438 183.523438 181.050781 C 184.125 181.574219 184.574219 182.851562 184.273438 183.898438 C 183.675781 186 175.949219 191.101562 176.25 191.699219 C 176.324219 191.925781 177.601562 191.625 177.601562 191.625 C 177.601562 191.625 175.875 192.148438 175.199219 191.851562 C 174.523438 191.625 173.773438 190.726562 173.625 190.050781 C 173.398438 189.449219 173.550781 188.851562 173.851562 188.175781 C 174.226562 187.273438 174.898438 185.925781 175.875 185.25 C 176.925781 184.5 179.101562 183.675781 180.074219 184.050781 C 180.976562 184.425781 181.726562 185.851562 181.726562 186.976562 C 181.800781 188.699219 179.773438 192.449219 178.648438 193.351562 C 178.125 193.800781 177.449219 193.875 176.851562 193.800781 C 176.175781 193.648438 175.199219 192.898438 174.824219 192.300781 C 174.601562 191.925781 174.449219 191.550781 174.523438 191.101562 C 174.601562 190.425781 175.199219 189.675781 175.800781 188.773438 C 176.773438 187.351562 179.101562 184.5 180.375 183.675781 C 181.050781 183.226562 181.574219 183.074219 182.175781 183.148438 C 182.773438 183.148438 183.449219 183.449219 183.824219 183.898438 C 184.351562 184.574219 184.425781 186.898438 184.351562 186.898438 C 184.351562 186.898438 183.449219 184.050781 183.601562 183.976562 C 183.824219 183.898438 185.175781 185.101562 185.398438 186.226562 C 185.851562 188.25 184.199219 193.949219 183.449219 195.675781 C 183.074219 196.5 182.851562 196.875 182.324219 197.175781 C 181.800781 197.476562 181.050781 197.625 180.523438 197.550781 C 179.925781 197.476562 179.25 197.175781 178.875 196.648438 C 178.273438 195.75 177.976562 193.949219 178.199219 192.300781 C 178.5 189.898438 180.976562 185.101562 182.175781 183.675781 C 182.773438 183.074219 183.226562 182.851562 183.75 182.773438 C 184.351562 182.625 185.101562 182.699219 185.625 183.074219 C 186.226562 183.523438 186.898438 184.800781 186.824219 185.699219 C 186.75 186.824219 185.476562 187.648438 184.875 189.074219 C 183.976562 191.25 184.125 196.273438 182.851562 197.851562 C 182.175781 198.675781 180.976562 199.125 180.226562 199.125 C 179.625 199.050781 179.023438 198.675781 178.648438 198.226562 C 178.273438 197.773438 178.050781 197.25 178.050781 196.5 C 178.125 194.476562 180.601562 187.726562 182.25 186.148438 C 183.074219 185.324219 184.199219 184.949219 184.949219 185.101562 C 185.625 185.25 186.300781 185.851562 186.75 186.675781 C 187.5 188.175781 187.050781 192 187.5 193.726562 C 187.875 194.925781 188.699219 195.675781 188.773438 196.5 C 188.851562 197.175781 188.699219 197.851562 188.398438 198.300781 C 188.023438 198.75 187.5 199.273438 186.898438 199.351562 C 186.148438 199.5 184.574219 199.050781 184.125 198.375 C 183.601562 197.773438 183.601562 196.875 183.898438 195.675781 C 184.5 193.125 189.074219 187.425781 190.425781 184.273438 C 191.324219 182.101562 191.25 179.773438 192 178.726562 C 192.449219 178.125 192.976562 177.898438 193.5 177.75 C 194.023438 177.601562 194.699219 177.675781 195.226562 177.976562 C 195.75 178.425781 196.351562 179.324219 196.425781 180.449219 C 196.574219 183.074219 193.351562 192.300781 191.550781 193.648438 C 190.800781 194.25 189.898438 194.175781 189.300781 193.875 C 188.550781 193.574219 187.875 192.675781 187.726562 191.476562 C 187.351562 189.148438 189.226562 181.875 190.726562 180.074219 C 191.476562 179.175781 192.601562 178.800781 193.351562 178.800781 C 193.875 178.875 194.550781 179.324219 194.851562 179.699219 C 195.226562 180.148438 195.523438 180.675781 195.449219 181.425781 C 195.300781 183.074219 192.824219 187.574219 191.625 189.300781 C 190.949219 190.273438 190.574219 191.101562 189.75 191.398438 C 188.851562 191.699219 187.125 191.398438 186.449219 190.800781 C 185.925781 190.273438 185.773438 189.300781 185.625 188.476562 C 185.550781 187.5 185.550781 186.449219 185.925781 185.324219 C 186.523438 183.824219 188.175781 181.5 189.300781 180.449219 C 190.125 179.773438 190.875 179.25 191.851562 179.101562 C 192.898438 179.023438 194.699219 179.324219 195.300781 180.148438 C 195.898438 180.898438 195.898438 182.699219 195.449219 183.824219 C 194.925781 185.25 193.125 186.898438 191.699219 187.800781 C 190.273438 188.699219 188.023438 189.898438 186.976562 189.449219 C 186 189.074219 185.023438 187.125 185.101562 186.148438 C 185.25 185.25 186.449219 184.351562 187.351562 183.75 C 188.324219 183.148438 189.675781 182.925781 190.800781 182.699219 C 191.699219 182.550781 192.523438 182.324219 193.425781 182.550781 C 194.398438 182.851562 195.898438 183.601562 196.351562 184.5 C 196.800781 185.398438 196.574219 186.675781 196.125 187.800781 C 195.375 189.449219 193.273438 191.476562 191.398438 192.898438 C 189.449219 194.550781 186.375 196.648438 184.351562 197.023438 C 183 197.324219 181.800781 196.949219 180.824219 196.574219 C 180.074219 196.273438 179.023438 195.601562 179.023438 195.226562 C 179.101562 194.773438 181.199219 193.800781 181.574219 194.101562 C 181.949219 194.324219 181.800781 196.050781 181.425781 196.726562 C 181.050781 197.324219 180.148438 198 179.398438 198.074219 C 178.726562 198.148438 177.824219 197.773438 177.148438 197.175781 C 176.175781 196.351562 174.898438 194.101562 174.898438 192.976562 C 174.824219 192.226562 175.125 191.625 175.574219 191.25 C 176.101562 190.726562 176.925781 190.273438 177.898438 190.425781 C 179.699219 190.574219 183.523438 193.273438 185.398438 194.773438 C 186.824219 195.898438 188.175781 197.175781 188.476562 198.148438 C 188.699219 198.824219 188.550781 199.5 188.175781 200.023438 C 187.800781 200.550781 186.976562 201.148438 186.148438 201.226562 C 184.875 201.449219 182.023438 200.851562 181.050781 200.101562 C 180.523438 199.726562 180.226562 199.050781 180.148438 198.523438 C 180.074219 197.925781 180.074219 197.25 180.523438 196.726562 C 181.5 195.601562 185.851562 194.851562 187.648438 194.101562 C 188.773438 193.574219 189.675781 193.273438 190.425781 192.601562 C 191.175781 191.773438 191.398438 189.976562 192.226562 189.449219 C 192.898438 189 193.949219 188.925781 194.625 189.148438 C 195.300781 189.449219 195.898438 190.199219 196.199219 191.023438 C 196.648438 192.300781 196.5 194.851562 196.273438 196.351562 C 196.050781 197.476562 195.824219 198.449219 195.300781 199.273438 C 194.773438 200.175781 193.875 201.148438 193.125 201.449219 C 192.523438 201.675781 191.773438 201.601562 191.25 201.375 C 190.726562 201.148438 190.199219 200.625 189.898438 200.101562 C 189.675781 199.574219 189.675781 198.898438 189.75 198.226562 C 189.898438 197.476562 190.199219 196.875 190.875 195.898438 C 192.375 193.800781 197.625 186.523438 199.425781 186.675781 C 200.324219 186.75 201.300781 188.625 201.300781 189.601562 C 201.300781 190.425781 200.324219 191.324219 199.5 192.074219 C 198.300781 193.125 195.75 194.851562 194.398438 194.773438 C 193.351562 194.773438 192.074219 193.875 191.773438 193.050781 C 191.550781 192.300781 192.148438 190.574219 192.824219 190.050781 C 193.351562 189.601562 194.550781 189.601562 195.226562 189.824219 C 195.75 189.976562 196.199219 190.425781 196.5 190.875 C 196.726562 191.476562 196.875 192.675781 196.574219 193.351562 C 196.273438 193.949219 195.375 194.699219 194.699219 194.773438 C 193.949219 194.925781 192.824219 194.550781 192.375 194.023438 C 191.851562 193.351562 191.550781 191.925781 192 190.875 C 192.898438 188.925781 198.75 185.398438 200.851562 184.800781 C 201.898438 184.5 202.726562 184.5 203.25 184.949219 C 204 185.550781 204.375 187.5 204 188.925781 C 203.324219 191.175781 199.425781 194.851562 197.625 196.5 C 196.574219 197.476562 195.523438 197.699219 194.851562 198.523438 C 194.25 199.273438 194.25 200.699219 193.726562 201.148438 C 193.351562 201.523438 192.976562 201.601562 192.523438 201.601562 C 191.851562 201.601562 190.726562 201.226562 190.273438 200.625 C 189.824219 200.101562 189.601562 198.976562 189.75 198.226562 C 189.898438 197.550781 190.726562 197.175781 191.023438 196.351562 C 191.476562 194.925781 190.800781 191.476562 191.324219 190.351562 C 191.699219 189.675781 192.226562 189.300781 192.75 189.148438 C 193.273438 188.925781 194.101562 188.925781 194.625 189.148438 C 195.226562 189.449219 195.976562 190.273438 196.199219 191.023438 C 196.425781 192 196.125 193.574219 195.449219 194.625 C 194.625 196.050781 192.824219 197.25 190.949219 198.226562 C 188.625 199.351562 183.976562 201.074219 182.175781 200.699219 C 181.273438 200.476562 180.601562 199.800781 180.375 199.125 C 180.074219 198.449219 180.148438 197.324219 180.523438 196.726562 C 180.976562 196.125 181.800781 195.601562 182.699219 195.523438 C 183.898438 195.300781 186.601562 195.75 187.574219 196.648438 C 188.25 197.25 188.699219 198.675781 188.476562 199.425781 C 188.175781 200.175781 187.199219 201.148438 186.148438 201.226562 C 183.976562 201.375 177.523438 196.875 175.949219 195.148438 C 175.199219 194.324219 174.824219 193.648438 174.898438 192.976562 C 174.898438 192.226562 175.425781 191.175781 176.023438 190.800781 C 176.773438 190.425781 178.199219 190.5 179.023438 190.875 C 179.925781 191.25 180.824219 192.300781 181.273438 193.125 C 181.648438 194.023438 181.875 195.300781 181.648438 196.125 C 181.5 196.726562 181.125 197.324219 180.601562 197.625 C 180 198 178.800781 198.148438 178.199219 197.925781 C 177.601562 197.773438 177.074219 197.25 176.773438 196.726562 C 176.398438 195.976562 176.324219 194.550781 176.476562 193.648438 C 176.699219 192.75 177.148438 191.773438 177.75 191.25 C 178.351562 190.726562 179.175781 190.351562 180.074219 190.273438 C 181.351562 190.199219 183.074219 192 184.5 191.699219 C 186.148438 191.476562 187.726562 188.699219 189.148438 188.175781 C 190.050781 187.800781 191.699219 187.949219 191.699219 187.875 C 191.699219 187.800781 189.75 188.101562 189.300781 187.648438 C 188.851562 187.199219 189.523438 185.851562 189.148438 185.324219 C 188.699219 184.800781 186.898438 184.875 186.824219 184.5 C 186.824219 183.976562 189.976562 181.875 190.875 182.175781 C 191.625 182.398438 192.300781 184.199219 192.148438 185.101562 C 192 185.925781 190.949219 186.898438 190.050781 187.351562 C 189.148438 187.726562 187.125 188.101562 186.75 187.5 C 186.226562 186.675781 189.300781 181.425781 190.726562 180.074219 C 191.550781 179.25 192.523438 178.726562 193.351562 178.800781 C 194.023438 178.875 194.851562 179.550781 195.226562 180.226562 C 195.601562 181.050781 195.523438 182.175781 195.375 183.375 C 195.300781 185.023438 194.699219 187.351562 194.023438 189.074219 C 193.425781 190.726562 192.523438 192.976562 191.550781 193.648438 C 191.023438 194.101562 190.425781 194.101562 189.824219 194.023438 C 189.300781 193.949219 188.625 193.726562 188.324219 193.199219 C 187.800781 192.449219 187.648438 191.023438 187.875 189.523438 C 188.175781 186.898438 190.726562 180.300781 192 178.726562 C 192.523438 178.125 192.976562 177.898438 193.5 177.75 C 194.023438 177.601562 194.699219 177.675781 195.226562 177.976562 C 195.75 178.351562 196.273438 179.101562 196.425781 179.851562 C 196.648438 180.898438 196.351562 182.101562 195.75 183.675781 C 194.699219 186.976562 189.601562 197.699219 188.699219 197.625 C 188.324219 197.550781 188.324219 195.375 188.324219 195.375 C 188.324219 195.375 188.925781 197.101562 188.625 197.699219 C 188.398438 198.375 187.574219 199.199219 186.898438 199.351562 C 186.226562 199.574219 185.175781 199.351562 184.5 198.824219 C 183.675781 198.148438 183 196.5 182.550781 194.925781 C 181.949219 192.824219 181.5 188.851562 181.800781 187.273438 C 181.949219 186.523438 182.175781 186 182.625 185.699219 C 183.148438 185.25 184.273438 184.949219 184.949219 185.101562 C 185.550781 185.175781 186.148438 185.699219 186.449219 186.148438 C 186.75 186.601562 186.898438 187.125 186.898438 187.949219 C 186.824219 189.449219 185.699219 192.898438 184.648438 194.851562 C 183.824219 196.5 182.625 198.523438 181.5 198.976562 C 180.675781 199.273438 179.699219 199.050781 179.101562 198.601562 C 178.5 198.226562 178.199219 197.476562 178.050781 196.5 C 177.824219 194.398438 179.398438 188.699219 180.449219 186.375 C 181.050781 184.949219 181.726562 183.824219 182.625 183.226562 C 183.449219 182.773438 184.875 182.625 185.625 183.074219 C 186.300781 183.449219 186.898438 184.726562 186.824219 185.699219 C 186.75 187.050781 184.875 188.550781 184.351562 190.199219 C 183.75 191.851562 183.976562 194.476562 183.449219 195.675781 C 183.148438 196.425781 182.851562 196.949219 182.324219 197.175781 C 181.648438 197.550781 180 197.625 179.324219 197.101562 C 178.574219 196.5 178.273438 194.773438 178.351562 193.425781 C 178.425781 191.773438 180.449219 189.449219 180.523438 187.800781 C 180.523438 186.601562 179.324219 185.476562 179.550781 184.648438 C 179.773438 183.976562 180.824219 183.300781 181.5 183.148438 C 182.25 183.074219 183.375 183.449219 183.824219 183.898438 C 184.273438 184.351562 184.574219 185.023438 184.574219 185.625 C 184.648438 186.226562 184.574219 186.824219 184.125 187.425781 C 183.449219 188.550781 180.75 190.050781 179.851562 191.175781 C 179.25 191.925781 179.25 192.898438 178.648438 193.351562 C 178.199219 193.726562 177.449219 193.875 176.851562 193.800781 C 176.25 193.726562 175.574219 193.351562 175.199219 192.898438 C 174.75 192.375 174.449219 191.476562 174.449219 190.648438 C 174.449219 189.898438 174.824219 188.925781 175.199219 188.175781 C 175.574219 187.425781 176.101562 186.074219 176.550781 186.074219 C 177 186.074219 177.375 187.648438 178.050781 188.023438 C 178.648438 188.324219 180.375 187.574219 180.523438 187.949219 C 180.75 188.476562 178.199219 191.476562 177 191.925781 C 176.25 192.226562 175.199219 191.925781 174.601562 191.550781 C 174.074219 191.25 173.625 190.726562 173.625 190.050781 C 173.476562 188.925781 174.675781 186.898438 175.648438 185.550781 C 176.773438 183.898438 178.875 181.875 180.074219 181.125 C 180.75 180.675781 181.199219 180.449219 181.800781 180.449219 C 182.324219 180.449219 183.074219 180.675781 183.523438 181.050781 C 183.976562 181.425781 184.351562 182.101562 184.351562 182.699219 C 184.425781 183.300781 184.199219 184.125 183.675781 184.800781 C 182.773438 186.074219 179.773438 187.800781 178.125 188.550781 C 176.925781 189.148438 174.976562 189.601562 174.824219 189.449219 C 174.75 189.300781 177.074219 187.648438 177.148438 187.726562 C 177.148438 187.800781 176.398438 188.851562 175.875 189.074219 C 175.425781 189.375 174.675781 189.523438 174.074219 189.300781 C 173.324219 189.074219 172.273438 188.023438 172.125 187.125 C 171.898438 185.925781 173.175781 183.824219 174 182.550781 C 174.675781 181.574219 175.273438 180.976562 176.324219 180.074219 C 178.125 178.648438 182.101562 175.425781 183.976562 175.351562 C 185.101562 175.273438 186.226562 176.023438 186.601562 176.699219 C 186.976562 177.449219 186.898438 178.726562 186.226562 179.625 C 184.949219 181.425781 178.726562 184.574219 176.699219 184.648438 C 175.726562 184.726562 174.976562 184.273438 174.523438 183.75 C 174.074219 183.148438 173.851562 182.101562 174.074219 181.425781 C 174.226562 180.75 174.75 180.226562 175.726562 179.699219 C 178.5 178.125 191.550781 174.75 194.851562 175.351562 C 196.050781 175.574219 196.875 176.25 197.25 177 C 197.476562 177.601562 197.476562 178.574219 196.949219 179.324219 C 195.75 181.050781 190.050781 183.375 186.898438 184.726562 C 184.199219 185.851562 180.824219 187.425781 179.175781 187.199219 C 178.273438 187.125 177.523438 186.601562 177.148438 186 C 176.851562 185.324219 176.851562 184.050781 177.375 183.226562 C 178.050781 182.101562 180 181.125 181.726562 180.375 C 183.824219 179.550781 187.648438 178.425781 189.226562 178.648438 C 189.898438 178.726562 190.351562 178.949219 190.648438 179.324219 C 191.023438 179.699219 191.25 180.300781 191.324219 180.824219 C 191.324219 181.351562 191.101562 182.023438 190.800781 182.398438 C 190.425781 182.773438 189.375 183.226562 189.375 183.226562 " clip-rule="nonzero"/></clipPath><clipPath id="1d2f1c83e7"><path d="M 172.167969 172.167969 L 202.832031 172.167969 L 202.832031 202.832031 L 172.167969 202.832031 Z M 172.167969 172.167969 " clip-rule="nonzero"/></clipPath><clipPath id="d58982c88d"><path d="M 187.5 172.167969 C 179.035156 172.167969 172.167969 179.035156 172.167969 187.5 C 172.167969 195.964844 179.035156 202.832031 187.5 202.832031 C 195.964844 202.832031 202.832031 195.964844 202.832031 187.5 C 202.832031 179.035156 195.964844 172.167969 187.5 172.167969 Z M 187.5 172.167969 " clip-rule="nonzero"/></clipPath><clipPath id="ce7d99a804"><path d="M 174.828125 174.828125 L 200.171875 174.828125 L 200.171875 200.171875 L 174.828125 200.171875 Z M 174.828125 174.828125 " clip-rule="nonzero"/></clipPath><clipPath id="ad26b2aee7"><path d="M 187.5 174.828125 C 180.5 174.828125 174.828125 180.5 174.828125 187.5 C 174.828125 194.5 180.5 200.171875 187.5 200.171875 C 194.5 200.171875 200.171875 194.5 200.171875 187.5 C 200.171875 180.5 194.5 174.828125 187.5 174.828125 Z M 187.5 174.828125 " clip-rule="nonzero"/></clipPath></defs><path fill="#1838d6" d="M 241.015625 170.71875 C 240.941406 170.59375 240.839844 170.488281 240.761719 170.363281 C 239.074219 168.214844 236.234375 167.039062 233.550781 167.34375 C 230.585938 167.675781 228.386719 169.136719 227.210938 169.980469 C 227.210938 169.980469 219.976562 175.117188 208.136719 180.050781 C 206.117188 180.894531 205.785156 180.5625 205.710938 180.460938 C 205.632812 180.359375 205.605469 180.207031 205.683594 180 C 207.140625 174.964844 208.726562 169.925781 209.671875 164.789062 C 210.824219 159.085938 211.539062 153.308594 211.820312 147.503906 C 211.972656 144.566406 211.949219 141.445312 210.386719 138.964844 C 207.960938 135.078125 201.746094 134.363281 198.472656 137.585938 C 196.429688 139.605469 195.6875 142.570312 195.074219 145.382812 C 194.28125 148.960938 193.539062 152.566406 192.875 156.171875 C 192.542969 157.988281 192.285156 159.828125 192.054688 161.667969 C 191.75 164.097656 191.621094 165.683594 191.007812 165.8125 C 190.777344 165.863281 190.371094 165.785156 189.703125 164.636719 C 189.015625 163.460938 188.347656 162.28125 187.632812 161.132812 C 186.328125 158.984375 184.976562 156.886719 183.542969 154.84375 C 180.703125 150.726562 177.585938 146.789062 174.210938 143.058594 C 172.21875 140.832031 170.019531 138.632812 167.230469 137.609375 C 164.980469 136.792969 162.269531 136.945312 160.328125 138.402344 C 158.257812 139.914062 156.46875 141.214844 156.671875 144.105469 C 156.800781 145.894531 157.617188 147.582031 158.4375 149.191406 C 159.945312 152.082031 161.605469 154.917969 163.394531 157.65625 C 163.421875 157.707031 164.546875 159.34375 166.746094 162.589844 C 168.355469 164.941406 169.6875 166.910156 169.457031 167.089844 C 169.351562 167.167969 169.097656 166.78125 168.304688 166.398438 C 167.539062 166.042969 166.796875 165.683594 166.03125 165.375 C 164.496094 164.761719 162.9375 164.199219 161.351562 163.6875 C 158.207031 162.640625 154.984375 161.796875 151.738281 161.132812 C 149.742188 160.722656 147.75 160.390625 145.753906 160.136719 C 143.351562 159.828125 140.820312 159.625 138.570312 160.519531 C 136.015625 161.542969 134.070312 163.996094 133.664062 166.730469 C 133.277344 169.46875 134.429688 172.355469 136.601562 174.070312 C 138.316406 175.398438 140.488281 175.988281 142.585938 176.550781 C 149.820312 178.542969 156.902344 181.023438 163.804688 184.015625 C 163.191406 183.757812 160.609375 185.089844 159.945312 185.320312 C 158.539062 185.828125 157.15625 186.367188 155.777344 186.929688 C 153.015625 188.054688 150.304688 189.308594 147.671875 190.664062 C 142.738281 193.191406 136.832031 196.109375 133.152344 200.378906 C 130.464844 203.523438 129.929688 208.125 132.691406 211.421875 C 134.480469 213.542969 137.394531 214.667969 140.128906 214.261719 C 142.535156 213.902344 144.65625 212.496094 146.726562 211.21875 C 151.992188 207.945312 157.59375 205.210938 163.421875 203.0625 C 165.363281 202.347656 167.179688 200.890625 167.871094 201.527344 C 168.585938 202.191406 167.4375 204.492188 167.027344 205.363281 C 161.863281 216.101562 161.042969 230.113281 160.917969 231.464844 C 160.507812 235.480469 160.457031 239.953125 163.0625 243.023438 C 166.386719 246.933594 173.597656 246.296875 176.179688 241.847656 C 177.277344 239.953125 177.558594 237.703125 177.867188 235.53125 C 178.839844 228.679688 179.734375 225.253906 179.734375 225.253906 C 181.164062 216.664062 181.523438 215.15625 182.214844 215.105469 C 182.902344 215.027344 183.234375 216.511719 185.664062 220.957031 C 186.277344 222.109375 187.582031 224.460938 189.421875 227.300781 C 192.054688 231.390625 194.972656 235.25 198.191406 238.90625 C 200.316406 241.308594 202.769531 243.738281 205.9375 244.328125 C 210.566406 245.144531 215.375 240.796875 215.015625 236.121094 C 214.863281 234.277344 214.402344 232.949219 213.046875 230.597656 C 210.285156 225.816406 202.898438 216.050781 202.640625 214.875 C 202.640625 214.875 202.640625 214.847656 202.640625 214.824219 C 202.847656 214.363281 208.214844 216.765625 214.480469 218.707031 C 215.78125 219.117188 220.691406 220.394531 227.082031 221.417969 C 229.484375 221.800781 232.042969 222.082031 234.34375 221.238281 C 238.871094 219.550781 240.710938 213.058594 237.691406 209.273438 C 236.132812 207.304688 234.242188 206.257812 230.945312 205.160156 C 217.214844 200.632812 210.3125 200.019531 210.183594 198.332031 C 210.082031 197.054688 214.019531 196.542969 222.863281 192.425781 C 223.375 192.195312 228.847656 189.382812 235.441406 185.039062 C 238.152344 183.246094 240.964844 181.152344 242.066406 178.082031 C 242.882812 175.679688 242.5 172.84375 241.015625 170.71875 Z M 241.015625 170.71875 " fill-opacity="1" fill-rule="nonzero"/><g clip-path="url(#92672eab07)"><path fill="#1a9eff" d="M 169.070312 246.246094 C 166.488281 246.246094 164.113281 245.222656 162.578125 243.433594 C 159.816406 240.160156 159.867188 235.507812 160.277344 231.390625 C 160.277344 231.3125 160.304688 231.183594 160.304688 230.980469 C 161.121094 220.804688 163.292969 211.601562 166.4375 205.054688 L 166.515625 204.902344 C 167.539062 202.730469 167.511719 202.140625 167.4375 201.960938 C 167.15625 201.910156 166.261719 202.371094 165.644531 202.703125 C 165.03125 203.011719 164.34375 203.367188 163.652344 203.625 C 157.875 205.746094 152.300781 208.480469 147.085938 211.730469 L 146.625 212.011719 C 144.65625 213.238281 142.609375 214.515625 140.234375 214.847656 C 137.292969 215.28125 134.148438 214.082031 132.203125 211.78125 C 129.390625 208.40625 129.570312 203.523438 132.664062 199.917969 C 136.269531 195.75 141.816406 192.886719 146.726562 190.382812 L 147.367188 190.046875 C 150.050781 188.667969 152.785156 187.414062 155.523438 186.289062 C 157.003906 185.703125 158.359375 185.164062 159.714844 184.679688 C 159.867188 184.628906 160.175781 184.5 160.507812 184.347656 C 160.96875 184.144531 161.402344 183.964844 161.761719 183.808594 C 155.523438 181.203125 149.027344 178.953125 142.40625 177.136719 C 140.359375 176.574219 138.035156 175.960938 136.191406 174.554688 C 133.839844 172.714844 132.589844 169.59375 133.023438 166.628906 C 133.457031 163.664062 135.554688 161.03125 138.316406 159.90625 C 140.746094 158.933594 143.453125 159.191406 145.804688 159.46875 C 147.800781 159.726562 149.847656 160.058594 151.839844 160.46875 C 155.214844 161.15625 158.460938 162.027344 161.53125 163.050781 C 163.113281 163.5625 164.699219 164.125 166.234375 164.761719 C 166.796875 164.992188 167.359375 165.25 167.921875 165.503906 C 167.382812 164.660156 166.695312 163.664062 166.183594 162.921875 C 165.007812 161.183594 164.136719 159.90625 163.574219 159.085938 C 163.011719 158.242188 162.859375 158.039062 162.808594 157.960938 C 161.019531 155.226562 159.332031 152.363281 157.824219 149.449219 C 156.929688 147.683594 156.109375 145.972656 155.980469 144.105469 C 155.75 140.859375 157.773438 139.402344 159.894531 137.839844 C 161.886719 136.359375 164.75 136 167.382812 136.972656 C 170.402344 138.070312 172.703125 140.449219 174.621094 142.597656 C 177.996094 146.355469 181.164062 150.34375 184.003906 154.460938 C 185.382812 156.429688 186.738281 158.5 188.121094 160.773438 C 188.628906 161.59375 189.140625 162.460938 189.628906 163.304688 C 189.808594 163.636719 190.011719 163.96875 190.191406 164.304688 C 190.472656 164.789062 190.675781 165.019531 190.777344 165.09375 C 190.984375 164.660156 191.136719 163.40625 191.265625 162.28125 L 191.339844 161.566406 C 191.621094 159.316406 191.878906 157.605469 192.160156 156.042969 C 192.796875 152.617188 193.539062 148.988281 194.359375 145.230469 C 195.023438 142.160156 195.816406 139.222656 197.9375 137.125 C 199.625 135.464844 202.15625 134.671875 204.761719 134.976562 C 207.371094 135.285156 209.59375 136.613281 210.847656 138.632812 C 212.535156 141.34375 212.535156 144.640625 212.382812 147.554688 C 212.101562 153.386719 211.386719 159.242188 210.234375 164.941406 C 209.441406 169.289062 208.164062 173.609375 206.9375 177.777344 C 206.730469 178.519531 206.5 179.234375 206.296875 179.976562 C 206.554688 179.925781 207.039062 179.820312 207.832031 179.488281 C 219.464844 174.632812 226.699219 169.542969 226.777344 169.492188 C 228.183594 168.46875 230.433594 167.089844 233.421875 166.757812 C 236.339844 166.425781 239.378906 167.703125 241.195312 170.003906 L 241.246094 170.082031 C 241.273438 170.132812 241.296875 170.15625 241.324219 170.207031 C 241.375 170.261719 241.425781 170.335938 241.476562 170.4375 C 243.0625 172.714844 243.496094 175.730469 242.601562 178.363281 C 241.425781 181.6875 238.433594 183.863281 235.722656 185.652344 C 229.050781 190.046875 223.605469 192.835938 223.042969 193.089844 C 219.234375 194.855469 216.371094 195.953125 214.273438 196.746094 C 212.5625 197.410156 210.949219 198.023438 210.746094 198.359375 C 210.949219 198.921875 214.144531 199.765625 217.265625 200.582031 C 220.640625 201.476562 225.242188 202.703125 231.070312 204.621094 C 234.703125 205.824219 236.542969 206.972656 238.128906 208.941406 C 239.660156 210.859375 240.148438 213.59375 239.40625 216.253906 C 238.664062 218.9375 236.824219 221.035156 234.496094 221.90625 C 231.992188 222.824219 229.28125 222.492188 226.902344 222.109375 C 220.257812 221.035156 215.398438 219.757812 214.199219 219.375 C 211.386719 218.503906 208.777344 217.53125 206.65625 216.765625 C 205.554688 216.355469 204.457031 215.949219 203.664062 215.691406 C 204.429688 216.917969 205.914062 219.066406 207.292969 221.011719 C 209.542969 224.230469 212.101562 227.886719 213.507812 230.316406 C 214.886719 232.71875 215.398438 234.125 215.550781 236.09375 C 215.730469 238.496094 214.65625 240.976562 212.6875 242.792969 C 210.695312 244.582031 208.113281 245.425781 205.734375 244.992188 C 202.4375 244.378906 199.878906 241.921875 197.628906 239.367188 C 194.410156 235.710938 191.441406 231.773438 188.808594 227.683594 C 186.941406 224.820312 185.640625 222.441406 185.027344 221.292969 C 184.15625 219.707031 183.542969 218.480469 183.109375 217.582031 C 182.726562 216.816406 182.390625 216.152344 182.1875 215.871094 C 181.753906 216.714844 181.113281 220.394531 180.269531 225.382812 L 180.269531 225.433594 C 180.269531 225.457031 179.375 228.910156 178.429688 235.632812 L 178.402344 235.890625 C 178.097656 238.039062 177.789062 240.261719 176.664062 242.179688 C 175.363281 244.453125 172.804688 245.964844 169.890625 246.21875 C 169.660156 246.246094 169.351562 246.246094 169.070312 246.246094 Z M 167.4375 200.734375 C 167.769531 200.734375 168.050781 200.835938 168.304688 201.066406 C 169.25 201.9375 168.484375 203.804688 167.664062 205.492188 L 167.589844 205.644531 C 164.496094 212.0625 162.375 221.113281 161.582031 231.109375 C 161.554688 231.289062 161.554688 231.441406 161.554688 231.519531 C 161.171875 235.378906 161.09375 239.699219 163.550781 242.589844 C 164.980469 244.277344 167.332031 245.144531 169.839844 244.914062 C 172.34375 244.683594 174.519531 243.40625 175.617188 241.515625 C 176.613281 239.800781 176.894531 237.703125 177.175781 235.683594 L 177.203125 235.429688 C 178.121094 228.859375 178.992188 225.484375 179.070312 225.101562 C 179.757812 221.011719 180.21875 218.324219 180.601562 216.816406 C 180.910156 215.5625 181.242188 214.515625 182.136719 214.464844 C 183.007812 214.363281 183.390625 215.128906 184.308594 216.996094 C 184.746094 217.890625 185.359375 219.09375 186.203125 220.652344 C 186.816406 221.800781 188.09375 224.128906 189.933594 226.941406 C 192.542969 230.980469 195.484375 234.867188 198.652344 238.472656 C 200.75 240.847656 203.128906 243.152344 206.042969 243.6875 C 208.011719 244.046875 210.210938 243.328125 211.921875 241.796875 C 213.609375 240.261719 214.53125 238.164062 214.375 236.171875 C 214.222656 234.40625 213.789062 233.179688 212.484375 230.929688 C 211.105469 228.550781 208.574219 224.921875 206.347656 221.726562 C 203.382812 217.480469 202.15625 215.667969 202.027344 215.027344 L 202.003906 214.949219 L 202.003906 214.695312 L 202.054688 214.566406 C 202.359375 213.875 203.230469 214.15625 204.097656 214.414062 C 204.867188 214.667969 205.9375 215.054688 207.191406 215.511719 C 209.289062 216.28125 211.871094 217.226562 214.65625 218.09375 C 216.113281 218.554688 221.101562 219.808594 227.183594 220.78125 C 229.382812 221.136719 231.914062 221.445312 234.113281 220.625 C 236.058594 219.910156 237.589844 218.09375 238.230469 215.820312 C 238.84375 213.570312 238.460938 211.269531 237.183594 209.65625 C 235.777344 207.894531 234.089844 206.871094 230.738281 205.746094 C 224.933594 203.828125 220.359375 202.628906 217.007812 201.734375 C 211.820312 200.351562 209.648438 199.789062 209.542969 198.359375 C 209.441406 197.15625 210.746094 196.644531 213.890625 195.46875 C 215.960938 194.675781 218.824219 193.601562 222.582031 191.839844 C 223.09375 191.609375 228.589844 188.769531 235.085938 184.5 C 237.617188 182.839844 240.402344 180.792969 241.453125 177.851562 C 242.21875 175.628906 241.835938 173.019531 240.480469 171.078125 L 240.453125 171.050781 C 240.429688 171 240.402344 170.976562 240.378906 170.925781 C 240.328125 170.875 240.277344 170.796875 240.222656 170.71875 C 238.664062 168.777344 236.082031 167.675781 233.601562 167.957031 C 230.917969 168.265625 228.871094 169.542969 227.570312 170.464844 C 227.492188 170.515625 220.128906 175.707031 208.367188 180.613281 C 206.578125 181.355469 205.632812 181.40625 205.171875 180.820312 C 204.96875 180.539062 204.917969 180.152344 205.042969 179.769531 C 205.273438 178.976562 205.503906 178.160156 205.734375 177.367188 C 206.960938 173.226562 208.214844 168.929688 209.007812 164.636719 C 210.15625 158.984375 210.875 153.207031 211.15625 147.429688 C 211.308594 144.71875 211.308594 141.652344 209.824219 139.273438 C 208.777344 137.609375 206.859375 136.460938 204.660156 136.203125 C 202.460938 135.949219 200.289062 136.613281 198.882812 137.996094 C 197.015625 139.835938 196.273438 142.597656 195.660156 145.484375 C 194.84375 149.21875 194.101562 152.847656 193.460938 156.25 C 193.179688 157.808594 192.925781 159.46875 192.644531 161.71875 L 192.566406 162.4375 C 192.261719 164.867188 192.109375 166.195312 191.109375 166.425781 C 190.214844 166.628906 189.550781 165.683594 189.117188 164.941406 C 188.9375 164.609375 188.734375 164.277344 188.554688 163.945312 C 188.066406 163.125 187.582031 162.257812 187.070312 161.4375 C 185.691406 159.191406 184.359375 157.144531 183.007812 155.175781 C 180.195312 151.109375 177.074219 147.148438 173.726562 143.441406 C 171.910156 141.421875 169.738281 139.171875 167 138.171875 C 164.777344 137.355469 162.347656 137.636719 160.710938 138.890625 C 158.71875 140.347656 157.132812 141.496094 157.3125 144.027344 C 157.4375 145.640625 158.15625 147.171875 159 148.859375 C 160.507812 151.722656 162.144531 154.5625 163.933594 157.273438 L 163.957031 157.296875 C 164.035156 157.398438 164.292969 157.808594 164.675781 158.347656 C 165.238281 159.164062 166.105469 160.441406 167.28125 162.179688 C 168.074219 163.332031 168.816406 164.429688 169.351562 165.273438 C 169.992188 166.269531 170.476562 167.089844 169.863281 167.550781 C 169.429688 167.882812 168.996094 167.550781 168.816406 167.421875 C 168.636719 167.292969 168.433594 167.113281 168.050781 166.9375 L 167.691406 166.757812 C 167.050781 166.449219 166.4375 166.167969 165.824219 165.914062 C 164.316406 165.300781 162.757812 164.738281 161.199219 164.25 C 158.179688 163.253906 154.960938 162.386719 151.660156 161.71875 C 149.691406 161.3125 147.699219 160.980469 145.730469 160.722656 C 143.53125 160.441406 141 160.210938 138.851562 161.054688 C 136.5 162 134.710938 164.25 134.328125 166.757812 C 133.96875 169.289062 135.042969 171.921875 137.035156 173.507812 C 138.648438 174.757812 140.746094 175.320312 142.789062 175.859375 C 150.101562 177.878906 157.261719 180.382812 164.085938 183.351562 C 164.292969 183.527344 164.394531 183.808594 164.316406 184.066406 C 164.214844 184.371094 163.90625 184.550781 163.574219 184.527344 L 163.625 184.550781 C 163.242188 184.5 161.65625 185.214844 161.042969 185.472656 C 160.660156 185.652344 160.355469 185.777344 160.148438 185.855469 C 158.820312 186.339844 157.464844 186.851562 156.007812 187.464844 C 153.324219 188.566406 150.613281 189.820312 147.953125 191.171875 L 147.289062 191.503906 C 142.484375 193.960938 137.0625 196.746094 133.609375 200.734375 C 130.925781 203.878906 130.746094 208.074219 133.152344 210.960938 C 134.8125 212.929688 137.496094 213.953125 140.003906 213.570312 C 142.097656 213.261719 144.042969 212.0625 145.910156 210.886719 L 146.367188 210.605469 C 151.660156 207.304688 157.3125 204.542969 163.167969 202.398438 C 163.804688 202.167969 164.417969 201.835938 165.03125 201.527344 C 165.953125 201.144531 166.769531 200.734375 167.4375 200.734375 Z M 167.4375 200.734375 " fill-opacity="1" fill-rule="nonzero"/></g><g clip-path="url(#5bea122b8e)"><g clip-path="url(#60967dbbe8)"><path fill="#0571d3" d="M 51.226562 159.675781 L 57.980469 159.675781 L 57.980469 166.199219 L 51.226562 166.199219 Z M 51.226562 159.675781 " fill-opacity="1" fill-rule="nonzero"/></g></g><g clip-path="url(#9ab1401a34)"><g clip-path="url(#f593fbec9b)"><path fill="#0571d3" d="M 184.5 183.300781 L 191.253906 183.300781 L 191.253906 189.824219 L 184.5 189.824219 Z M 184.5 183.300781 " fill-opacity="1" fill-rule="nonzero"/><path fill="#0571d3" d="M 184.5 183.300781 L 191.253906 183.300781 L 191.253906 189.824219 L 184.5 189.824219 Z M 184.5 183.300781 " fill-opacity="1" fill-rule="nonzero"/></g></g><g clip-path="url(#df599d0469)"><g clip-path="url(#138fb1c5fa)"><path fill="#0571d3" d="M 173.851562 176.773438 L 198.449219 176.773438 L 198.449219 201.375 L 173.851562 201.375 Z M 173.851562 176.773438 " fill-opacity="1" fill-rule="nonzero"/></g></g><g clip-path="url(#e34ab98c9c)"><g clip-path="url(#166f4d1603)"><path fill="#0571d3" d="M 174.074219 176.773438 L 198.675781 176.773438 L 198.675781 201.375 L 174.074219 201.375 Z M 174.074219 176.773438 " fill-opacity="1" fill-rule="nonzero"/></g></g><g clip-path="url(#2c0d0296e7)"><g clip-path="url(#53e410381b)"><path fill="#01184e" d="M 173.625 176.699219 L 198.226562 176.699219 L 198.226562 201.300781 L 173.625 201.300781 Z M 173.625 176.699219 " fill-opacity="1" fill-rule="nonzero"/></g></g><g clip-path="url(#0dc6531730)"><g clip-path="url(#512b48f3da)"><path fill="#111827" d="M 173.398438 176.25 L 198 176.25 L 198 200.851562 L 173.398438 200.851562 Z M 173.398438 176.25 " fill-opacity="1" fill-rule="nonzero"/></g></g><g clip-path="url(#39ea155676)"><g clip-path="url(#a554fa661c)"><path fill="#111827" d="M 173.550781 176.324219 L 198.148438 176.324219 L 198.148438 200.925781 L 173.550781 200.925781 Z M 173.550781 176.324219 " fill-opacity="1" fill-rule="nonzero"/></g></g><g clip-path="url(#6b5044da24)"><g clip-path="url(#1eacfd16d6)"><path fill="#111827" d="M 173.773438 176.550781 L 198.375 176.550781 L 198.375 201.148438 L 173.773438 201.148438 Z M 173.773438 176.550781 " fill-opacity="1" fill-rule="nonzero"/></g></g><g clip-path="url(#80f7506b68)"><g clip-path="url(#00e792547f)"><path fill="#1838d6" d="M 169.125 172.351562 L 207.042969 172.351562 L 207.042969 204.601562 L 169.125 204.601562 Z M 169.125 172.351562 " fill-opacity="1" fill-rule="nonzero"/></g></g><g clip-path="url(#1d2f1c83e7)"><g clip-path="url(#d58982c88d)"><path fill="#0571d3" d="M 172.167969 172.167969 L 202.832031 172.167969 L 202.832031 202.832031 L 172.167969 202.832031 Z M 172.167969 172.167969 " fill-opacity="1" fill-rule="nonzero"/></g></g><g clip-path="url(#ce7d99a804)"><g clip-path="url(#ad26b2aee7)"><path fill="#01184e" d="M 174.828125 174.828125 L 200.171875 174.828125 L 200.171875 200.171875 L 174.828125 200.171875 Z M 174.828125 174.828125 " fill-opacity="1" fill-rule="nonzero"/></g></g></svg>